<?xml version="1.0" standalone="no"?>
<!DOCTYPE svg PUBLIC "-//W3C//DTD SVG 20010904//EN"
 "http://www.w3.org/TR/2001/REC-SVG-20010904/DTD/svg10.dtd">
<svg version="1.0" xmlns="http://www.w3.org/2000/svg"
 width="320.000000pt" height="450.000000pt" viewBox="0 0 320.000000 450.000000"
 preserveAspectRatio="xMidYMid meet">
<metadata>
Created by potrace 1.11, written by Peter Selinger 2001-2013
</metadata>
<g transform="translate(0.000000,450.000000) scale(0.100000,-0.100000)"
fill="#000000" stroke="none">
<path d="M1799 4392 c-17 -28 -24 -33 -27 -19 -2 9 -7 17 -11 17 -15 0 -61
-41 -61 -54 0 -7 -9 -25 -20 -39 -11 -14 -20 -37 -20 -51 0 -16 -9 -31 -25
-42 -13 -9 -34 -31 -44 -48 -11 -18 -32 -39 -46 -46 -25 -13 -28 -12 -52 19
-19 24 -31 31 -46 27 -12 -3 -29 2 -39 11 -36 32 -394 39 -518 9 -41 -9 -91
-21 -110 -25 -19 -4 -45 -13 -56 -19 -12 -6 -50 -22 -85 -35 -35 -12 -111 -54
-167 -92 -129 -86 -191 -158 -268 -311 -57 -114 -57 -114 -65 -232 -4 -64 -12
-133 -18 -152 -19 -61 -14 -78 39 -131 28 -27 50 -59 50 -70 0 -11 -18 -55
-40 -99 -47 -94 -88 -272 -74 -323 12 -43 79 -77 151 -77 29 0 53 -4 53 -9 0
-5 16 -32 35 -61 19 -29 35 -62 35 -74 0 -22 13 -44 68 -116 17 -24 32 -52 32
-62 0 -28 24 -69 60 -103 28 -27 39 -30 108 -33 72 -3 82 -1 147 32 78 40 76
41 116 -36 l19 -38 -55 -85 c-60 -93 -145 -182 -257 -267 -62 -47 -95 -63
-218 -106 -138 -47 -147 -51 -178 -93 -18 -24 -39 -52 -47 -61 -8 -9 -20 -27
-28 -40 -24 -37 -83 -252 -111 -403 -25 -135 -26 -153 -26 -512 l0 -373 1600
0 1600 0 0 800 0 799 -57 46 c-239 187 -529 336 -721 369 -149 26 -175 37
-266 118 -46 40 -113 115 -151 167 -38 51 -87 108 -108 125 -22 17 -45 43 -53
58 -22 42 -17 117 10 174 58 116 71 173 80 351 2 31 12 65 25 86 26 43 27 77
1 110 -23 30 -25 50 -6 66 8 7 17 27 20 46 6 32 10 35 40 35 22 0 38 -7 47
-19 11 -15 19 -17 38 -10 19 7 22 12 13 21 -18 18 -15 28 7 28 25 0 36 16 16
24 -10 4 -14 13 -10 28 5 20 -1 26 -47 47 -29 13 -63 34 -76 46 -12 13 -35 25
-50 28 -17 4 -33 16 -40 32 -16 34 -15 57 2 53 7 -2 33 18 58 45 25 26 50 47
56 47 6 0 14 16 18 35 6 35 17 44 29 25 7 -12 45 -13 45 -2 0 5 -9 17 -19 26
-16 15 -18 21 -8 37 6 10 19 19 29 19 24 0 48 11 48 21 0 5 -13 9 -29 9 -35 0
-46 13 -54 62 -4 27 -1 40 12 52 10 9 21 13 24 9 4 -3 7 -2 7 4 0 13 -33 43
-47 43 -6 0 -13 7 -17 15 -3 9 0 15 8 15 8 0 13 12 13 31 0 25 -4 30 -19 26
-19 -5 -27 4 -32 40 -3 15 -11 17 -45 15 -32 -3 -41 0 -41 12 0 19 -37 35 -92
41 -33 3 -39 0 -59 -33z"/>
</g>
</svg>
